<svg xmlns="http://www.w3.org/2000/svg" viewBox="0 0 509.14 509.14"><defs><style>.cls-1{isolation:isolate;}.cls-2{fill:#b6eef2;}.cls-3{fill:#78d5e4;}.cls-4{fill:#2f518e;}.cls-5{fill:#fdfefe;}.cls-6{fill:#fc6454;}.cls-7{fill:#58d05b;}.cls-8{fill:#7194bf;}.cls-9{fill:#19bbd2;}.cls-10{opacity:0.1;mix-blend-mode:overlay;}.cls-11{fill:#fff;}.cls-12{fill:#7bd7e2;}</style></defs><title>home_img</title><g class="cls-1"><g id="Layer_3" data-name="Layer 3"><circle class="cls-2" cx="254.57" cy="254.57" r="254.57"/></g><g id="Ñëîé_3" data-name="Ñëîé 3"><rect class="cls-3" x="92.58" y="141.23" width="328.48" height="225.39" rx="7.63"/><rect class="cls-4" x="103.7" y="148.86" width="306.23" height="210.13" rx="7.63"/><rect class="cls-5" x="151.49" y="170.11" width="40.24" height="4.46"/><rect class="cls-5" x="151.49" y="180.11" width="25.64" height="4.46"/><rect class="cls-5" x="191.49" y="180.11" width="103.12" height="4.46"/><rect class="cls-6" x="304.61" y="180.11" width="54" height="4.46"/><rect class="cls-7" x="161.49" y="190.11" width="65.12" height="4.46"/><rect class="cls-5" x="246.61" y="190.11" width="97.02" height="4.46"/><rect class="cls-6" x="151.49" y="200.11" width="91.56" height="4.46"/><rect class="cls-3" x="251.49" y="200.11" width="65.12" height="4.46"/><rect class="cls-5" x="161.49" y="210.11" width="65.12" height="4.46"/><rect class="cls-5" x="151.49" y="220.11" width="95.12" height="4.46"/><rect class="cls-5" x="151.49" y="230.11" width="65.12" height="4.46"/><rect class="cls-6" x="171.49" y="240.11" width="108.62" height="4.46"/><rect class="cls-5" x="291.49" y="240.11" width="35.12" height="4.46"/><rect class="cls-5" x="341.49" y="240.11" width="35.12" height="4.46"/><rect class="cls-5" x="181.49" y="250.11" width="44.31" height="4.46"/><rect class="cls-6" x="181.49" y="260.11" width="59.11" height="4.46"/><rect class="cls-5" x="261.49" y="260.11" width="65.12" height="4.46"/><rect class="cls-6" x="341.49" y="260.11" width="27.12" height="4.46"/><rect class="cls-5" x="151.49" y="270.11" width="40" height="4.46"/><rect class="cls-5" x="151.49" y="280.11" width="65.12" height="4.46"/><rect class="cls-5" x="181.49" y="290.11" width="118.12" height="4.46"/><rect class="cls-3" x="311.49" y="290.11" width="73.12" height="4.46"/><rect class="cls-5" x="181.49" y="300.11" width="40.12" height="4.46"/><rect class="cls-7" x="231.49" y="300.11" width="40.12" height="4.46"/><rect class="cls-5" x="281.49" y="300.11" width="40.12" height="4.46"/><rect class="cls-5" x="151.49" y="310.11" width="65.12" height="4.46"/><rect class="cls-7" x="171.49" y="320.11" width="65.12" height="4.46"/><rect class="cls-7" x="248.94" y="320.11" width="65.12" height="4.46"/><rect class="cls-5" x="247.55" y="340.11" width="36.5" height="4.46"/><rect class="cls-5" x="171.49" y="330.11" width="96.58" height="4.46"/><rect class="cls-8" x="121.85" y="170.11" width="4.46" height="4.46"/><rect class="cls-8" x="121.85" y="180.11" width="4.46" height="4.46"/><rect class="cls-8" x="121.85" y="190.11" width="4.46" height="4.46"/><rect class="cls-8" x="121.85" y="200.11" width="4.46" height="4.46"/><rect class="cls-8" x="121.85" y="210.11" width="4.46" height="4.46"/><rect class="cls-8" x="121.85" y="220.11" width="4.46" height="4.46"/><rect class="cls-8" x="121.85" y="230.11" width="4.46" height="4.46"/><rect class="cls-8" x="121.85" y="240.11" width="4.46" height="4.46"/><rect class="cls-8" x="121.85" y="250.11" width="4.46" height="4.46"/><rect class="cls-8" x="121.85" y="260.11" width="4.46" height="4.46"/><rect class="cls-8" x="121.85" y="270.11" width="4.46" height="4.46"/><rect class="cls-8" x="121.85" y="280.11" width="4.46" height="4.46"/><rect class="cls-8" x="121.85" y="290.11" width="4.46" height="4.46"/><rect class="cls-8" x="121.85" y="300.11" width="4.46" height="4.46"/><rect class="cls-8" x="121.85" y="310.11" width="4.46" height="4.46"/><rect class="cls-8" x="121.85" y="320.11" width="4.46" height="4.46"/><rect class="cls-8" x="121.85" y="330.11" width="4.46" height="4.46"/><rect class="cls-8" x="121.85" y="340.11" width="4.46" height="4.46"/><rect class="cls-5" x="171.49" y="340.11" width="48.29" height="4.46"/><path class="cls-5" d="M602.36,403l-19-8.07v-3.29l19-8.07v3.51l-15.08,6.2,15.08,6.21Z" transform="translate(-241.54 -58.52)"/><path class="cls-5" d="M615.72,378.73l-8.31,28.71h-2.84l8.31-28.71Z" transform="translate(-241.54 -58.52)"/><path class="cls-5" d="M636.92,394.93l-19,8.07v-3.51L633,393.28l-15.08-6.2v-3.51l19,8.07Z" transform="translate(-241.54 -58.52)"/><path class="cls-9" d="M654.6,433.48h-317a20,20,0,0,1-20-20h357A20,20,0,0,1,654.6,433.48Z" transform="translate(-241.54 -58.52)"/><g class="cls-10"><polygon class="cls-11" points="220.27 358.99 294.9 148.86 266.55 148.86 191.92 358.99 220.27 358.99"/><path class="cls-11" d="M367.66,417.51H381L455.6,207.38H367.66A7.65,7.65,0,0,0,360,215V409.87A7.66,7.66,0,0,0,367.66,417.51Z" transform="translate(-241.54 -58.52)"/><path class="cls-11" d="M620,417.51h38.67a7.66,7.66,0,0,0,7.63-7.64V287.13Z" transform="translate(-241.54 -58.52)"/></g><g class="cls-10"><polygon class="cls-11" points="260.37 358.99 312.26 358.99 386.89 148.86 334.99 148.86 260.37 358.99"/></g><path class="cls-12" d="M671.9,423.48a19.85,19.85,0,0,0,2.7-10h-357a19.94,19.94,0,0,0,2.69,10Z" transform="translate(-241.54 -58.52)"/></g></g></svg>